<svg width="24" height="24" viewBox="0 0 24 24" fill="none" xmlns="http://www.w3.org/2000/svg">
<g clip-path="url(#clip0_1_2)">
<path d="M11.9992 0L23.9984 11.9975L11.9992 24L0 12.0025L11.9992 0ZM11.9171 0.904452L6.6529 6.17851L9.12824 8.64893L14.3924 3.37487L11.9171 0.904452ZM14.8718 3.85911L9.60919 9.12167L12.0041 11.5166L17.2667 6.25402L14.8718 3.85911ZM6.17194 6.64961L3.77703 9.04452L9.1266 14.3941L11.5215 11.9992L6.17194 6.64961ZM17.7443 6.74154L15.3593 9.1266L20.699 14.4663L23.0841 12.0813L17.7443 6.74154ZM3.29936 9.53204L0.914301 11.9171L6.25402 17.2568L8.63908 14.8718L3.29936 9.53204ZM14.8718 9.60427L12.4768 11.9992L17.8264 17.3487L20.2213 14.9538L14.8718 9.60427ZM11.9926 12.4818L6.73169 17.7476L9.12824 20.1409L14.3892 14.875L11.9926 12.4818ZM14.8718 15.3494L9.60755 20.6235L12.0829 23.0939L17.3471 17.8198L14.8718 15.3494Z" fill="white"/>
</g>
<defs>
<clipPath id="clip0_1_2">
<rect width="24" height="24" fill="white"/>
</clipPath>
</defs>
</svg>
