<svg width="22" height="20" viewBox="0 0 22 20" fill="none" xmlns="http://www.w3.org/2000/svg">
<g clip-path="url(#clip0_2_9)">
<path d="M21.1804 17.3503C20.7104 17.7417 19.6553 16.1056 19.2869 15.9336C18.4959 15.5652 17.7943 16.4239 17.6859 17.1322C18.2101 17.9287 20.5303 19.237 18.3943 19.5066C16.6376 19.7287 14.9703 18.9011 14.3865 17.181C14.0764 16.2681 14.2199 15.6735 14.2118 14.7864L10.3029 11.0007L9.67717 11.6007C10.8501 12.6355 11.5504 13.5105 10.4871 14.9868C10.0618 15.5774 6.21794 19.382 5.68294 19.6637C4.65628 20.2068 4.06981 19.9129 3.24496 19.2492C2.07473 18.3079 0.182581 16.6447 1.21602 15.0613C2.2508 13.4753 4.99218 11.6427 6.23962 10.0621C7.49789 9.38217 8.39317 10.23 9.20177 11.1253L9.80178 10.4021L6.69471 7.27196C5.8387 7.1785 5.31183 7.38573 4.42196 7.10672C2.34426 6.44846 1.37855 4.23261 2.21694 2.24294C2.76684 1.85693 3.77861 3.8642 4.39352 3.75855C5.05178 3.64478 5.45946 3.15177 5.60709 2.51925C5.41476 1.75534 3.06753 0.708366 4.49646 0.189617C7.15928 -0.776095 9.78146 2.1224 9.05955 4.75271L12.3156 8.00606L16.1162 4.21229C16.2706 3.90348 15.5608 3.4362 16.0999 2.71699C16.1907 2.59645 17.6954 1.35579 17.8065 1.30974C18.5704 0.996861 19.7108 2.08989 19.6296 2.74408C19.5984 2.99059 18.4471 4.48182 18.2115 4.69176C17.3988 5.41503 16.9681 4.49401 16.5861 4.68228L12.7924 8.48147L16.7216 12.4134C19.7555 11.7606 22.1935 14.3827 21.1831 17.349L21.1804 17.3503ZM17.5654 15.6302C19.1582 14.8026 19.4413 14.9381 20.5763 16.2681C20.9081 16.2776 20.6413 15.2387 20.5804 15.0478C20.1605 13.7394 18.9334 12.989 17.5925 13.0134C17.1686 13.0215 16.7433 13.3222 16.3708 13.0283L8.24689 4.89086C8.25908 4.37347 8.50288 4.04976 8.45953 3.47548C8.33222 1.7716 6.71502 0.589176 5.07074 0.697531C4.85267 0.888506 6.28025 1.99643 6.36151 2.19012C6.23962 3.63259 5.52854 4.23802 4.16327 4.5983L2.63411 3.2696C2.34291 5.66018 4.43686 7.0539 6.63917 6.39564L15.0313 14.6523C15.183 14.9936 14.8281 15.5259 14.8254 15.9322C14.8091 17.6876 16.4954 19.107 18.2101 18.8443L16.8841 17.2663L17.5695 15.6302H17.5654ZM18.1641 1.93142L16.5807 3.20459L17.4801 4.20687C18.2277 3.64885 19.6363 2.50164 18.1641 1.93142ZM5.88475 11.9393C6.00936 11.8445 6.34662 11.9732 6.49831 12.0653C7.04144 12.3917 9.03246 14.85 9.35482 14.9069C10.2853 14.3584 10.628 13.7624 9.94535 12.8184C9.73 12.5204 8.18729 10.9682 7.90828 10.7921C7.49653 10.5334 6.92631 10.4576 6.48477 10.7109L1.87969 15.3173C1.42866 15.8347 1.40564 16.6785 2.13839 16.9386L5.34027 13.7651C5.92403 13.5918 6.00936 13.9507 5.6843 14.3814C5.29557 14.8974 2.68422 17.1905 2.64088 17.4411L3.51178 18.4352L6.62021 15.316L7.23648 15.1873L7.10781 15.8035L3.98854 18.912C4.28381 19.2411 4.6617 19.3237 5.07616 19.1923C5.32808 19.1124 8.80627 15.767 8.85232 15.5069C8.88754 15.385 8.79002 15.3322 8.73449 15.2509C8.2496 14.529 6.05135 12.9078 5.81297 12.3457C5.78182 12.2712 5.86985 11.9529 5.88611 11.9407L5.88475 11.9393Z" fill="white"/>
<path d="M8.93426 6.64634L8.44678 7.13382L14.2047 12.8917L14.6921 12.4042L8.93426 6.64634Z" fill="white"/>
</g>
<defs>
<clipPath id="clip0_2_9">
<rect width="20.4967" height="19.9427" fill="white" transform="translate(0.916656)"/>
</clipPath>
</defs>
</svg>
